<svg width="117" height="16" viewBox="0 0 117 16" fill="none" xmlns="http://www.w3.org/2000/svg">
<g clip-path="url(#clip0)">
<path d="M16.539 6.09707C16.5218 6.04436 16.4902 5.9975 16.4478 5.9618C16.4054 5.9261 16.3539 5.90299 16.299 5.89507L10.939 5.11607L8.54198 0.260072C8.51745 0.210774 8.47965 0.169296 8.43284 0.140302C8.38602 0.111308 8.33205 0.0959473 8.27699 0.0959473C8.22192 0.0959473 8.16795 0.111308 8.12113 0.140302C8.07432 0.169296 8.03652 0.210774 8.01198 0.260072L5.61298 5.11707L0.252985 5.89607C0.198434 5.9042 0.147224 5.92736 0.105092 5.96295C0.0629609 5.99854 0.0315721 6.04516 0.0144429 6.09759C-0.00268629 6.15001 -0.00487919 6.20617 0.00810988 6.25978C0.021099 6.31338 0.0487569 6.3623 0.0879849 6.40107L3.96798 10.1811L3.05098 15.5211C3.04198 15.5755 3.04831 15.6313 3.06926 15.6823C3.0902 15.7334 3.12494 15.7775 3.16958 15.8099C3.21422 15.8423 3.267 15.8616 3.322 15.8657C3.377 15.8698 3.43205 15.8585 3.48098 15.8331L8.27598 13.3131L13.07 15.8331C13.119 15.859 13.1742 15.8707 13.2295 15.8667C13.2848 15.8628 13.3379 15.8434 13.3827 15.8108C13.4275 15.7782 13.4622 15.7336 13.483 15.6822C13.5037 15.6308 13.5096 15.5747 13.5 15.5201L12.584 10.1821L16.464 6.40007C16.544 6.32007 16.574 6.20307 16.539 6.09607V6.09707Z" fill="#EF9546"/>
</g>
<g clip-path="url(#clip1)">
<path d="M41.539 6.09707C41.5218 6.04436 41.4902 5.9975 41.4478 5.9618C41.4054 5.9261 41.3539 5.90299 41.299 5.89507L35.939 5.11607L33.542 0.260072C33.5175 0.210774 33.4797 0.169296 33.4328 0.140302C33.386 0.111308 33.3321 0.0959473 33.277 0.0959473C33.2219 0.0959473 33.1679 0.111308 33.1211 0.140302C33.0743 0.169296 33.0365 0.210774 33.012 0.260072L30.613 5.11707L25.253 5.89607C25.1984 5.9042 25.1472 5.92736 25.1051 5.96295C25.063 5.99854 25.0316 6.04516 25.0144 6.09759C24.9973 6.15001 24.9951 6.20617 25.0081 6.25978C25.0211 6.31338 25.0488 6.3623 25.088 6.40107L28.968 10.1811L28.051 15.5211C28.042 15.5755 28.0483 15.6313 28.0693 15.6823C28.0902 15.7334 28.1249 15.7775 28.1696 15.8099C28.2142 15.8423 28.267 15.8616 28.322 15.8657C28.377 15.8698 28.432 15.8585 28.481 15.8331L33.276 13.3131L38.07 15.8331C38.119 15.859 38.1742 15.8707 38.2295 15.8667C38.2848 15.8628 38.3379 15.8434 38.3827 15.8108C38.4275 15.7782 38.4622 15.7336 38.483 15.6822C38.5037 15.6308 38.5096 15.5747 38.5 15.5201L37.584 10.1821L41.464 6.40007C41.544 6.32007 41.574 6.20307 41.539 6.09607V6.09707Z" fill="#EF9546"/>
</g>
<g clip-path="url(#clip2)">
<path d="M66.539 6.09707C66.5218 6.04436 66.4902 5.9975 66.4478 5.9618C66.4054 5.9261 66.3539 5.90299 66.299 5.89507L60.939 5.11607L58.542 0.260072C58.5175 0.210774 58.4797 0.169296 58.4328 0.140302C58.386 0.111308 58.3321 0.0959473 58.277 0.0959473C58.2219 0.0959473 58.1679 0.111308 58.1211 0.140302C58.0743 0.169296 58.0365 0.210774 58.012 0.260072L55.613 5.11707L50.253 5.89607C50.1984 5.9042 50.1472 5.92736 50.1051 5.96295C50.063 5.99854 50.0316 6.04516 50.0144 6.09759C49.9973 6.15001 49.9951 6.20617 50.0081 6.25978C50.0211 6.31338 50.0488 6.3623 50.088 6.40107L53.968 10.1811L53.051 15.5211C53.042 15.5755 53.0483 15.6313 53.0693 15.6823C53.0902 15.7334 53.1249 15.7775 53.1696 15.8099C53.2142 15.8423 53.267 15.8616 53.322 15.8657C53.377 15.8698 53.432 15.8585 53.481 15.8331L58.276 13.3131L63.07 15.8331C63.119 15.859 63.1742 15.8707 63.2295 15.8667C63.2848 15.8628 63.3379 15.8434 63.3827 15.8108C63.4275 15.7782 63.4622 15.7336 63.483 15.6822C63.5037 15.6308 63.5096 15.5747 63.5 15.5201L62.584 10.1821L66.464 6.40007C66.544 6.32007 66.574 6.20307 66.539 6.09607V6.09707Z" fill="#EF9546"/>
</g>
<g clip-path="url(#clip3)">
<path d="M91.539 6.09707C91.5218 6.04436 91.4902 5.9975 91.4478 5.9618C91.4054 5.9261 91.3539 5.90299 91.299 5.89507L85.939 5.11607L83.542 0.260072C83.5175 0.210774 83.4797 0.169296 83.4328 0.140302C83.386 0.111308 83.3321 0.0959473 83.277 0.0959473C83.2219 0.0959473 83.1679 0.111308 83.1211 0.140302C83.0743 0.169296 83.0365 0.210774 83.012 0.260072L80.613 5.11707L75.253 5.89607C75.1984 5.9042 75.1472 5.92736 75.1051 5.96295C75.063 5.99854 75.0316 6.04516 75.0144 6.09759C74.9973 6.15001 74.9951 6.20617 75.0081 6.25978C75.0211 6.31338 75.0488 6.3623 75.088 6.40107L78.968 10.1811L78.051 15.5211C78.042 15.5755 78.0483 15.6313 78.0693 15.6823C78.0902 15.7334 78.1249 15.7775 78.1696 15.8099C78.2142 15.8423 78.267 15.8616 78.322 15.8657C78.377 15.8698 78.432 15.8585 78.481 15.8331L83.276 13.3131L88.07 15.8331C88.119 15.859 88.1742 15.8707 88.2295 15.8667C88.2848 15.8628 88.3379 15.8434 88.3827 15.8108C88.4275 15.7782 88.4622 15.7336 88.483 15.6822C88.5037 15.6308 88.5096 15.5747 88.5 15.5201L87.584 10.1821L91.464 6.40007C91.544 6.32007 91.574 6.20307 91.539 6.09607V6.09707Z" fill="#EF9546"/>
</g>
<g clip-path="url(#clip4)">
<path d="M116.539 6.09707C116.522 6.04436 116.49 5.9975 116.448 5.9618C116.405 5.9261 116.354 5.90299 116.299 5.89507L110.939 5.11607L108.542 0.260072C108.517 0.210774 108.48 0.169296 108.433 0.140302C108.386 0.111308 108.332 0.0959473 108.277 0.0959473C108.222 0.0959473 108.168 0.111308 108.121 0.140302C108.074 0.169296 108.037 0.210774 108.012 0.260072L105.613 5.11707L100.253 5.89607C100.198 5.9042 100.147 5.92736 100.105 5.96295C100.063 5.99854 100.032 6.04516 100.014 6.09759C99.9973 6.15001 99.9951 6.20617 100.008 6.25978C100.021 6.31338 100.049 6.3623 100.088 6.40107L103.968 10.1811L103.051 15.5211C103.042 15.5755 103.048 15.6313 103.069 15.6823C103.09 15.7334 103.125 15.7775 103.17 15.8099C103.214 15.8423 103.267 15.8616 103.322 15.8657C103.377 15.8698 103.432 15.8585 103.481 15.8331L108.276 13.3131L113.07 15.8331C113.119 15.859 113.174 15.8707 113.23 15.8667C113.285 15.8628 113.338 15.8434 113.383 15.8108C113.427 15.7782 113.462 15.7336 113.483 15.6822C113.504 15.6308 113.51 15.5747 113.5 15.5201L112.584 10.1821L116.464 6.40007C116.544 6.32007 116.574 6.20307 116.539 6.09607V6.09707Z" fill="#EF9546"/>
</g>
<defs>
<clipPath id="clip0">
<rect width="17" height="16" fill="white"/>
</clipPath>
<clipPath id="clip1">
<rect width="17" height="16" fill="white" transform="translate(25)"/>
</clipPath>
<clipPath id="clip2">
<rect width="17" height="16" fill="white" transform="translate(50)"/>
</clipPath>
<clipPath id="clip3">
<rect width="17" height="16" fill="white" transform="translate(75)"/>
</clipPath>
<clipPath id="clip4">
<rect width="17" height="16" fill="white" transform="translate(100)"/>
</clipPath>
</defs>
</svg>
